<svg id="kity_svg_6" xmlns="http://www.w3.org/2000/svg" xmlns:xlink="http://www.w3.org/1999/xlink" version="1.1" width="1142" height="904" style="background: rgb(251, 251, 251); visibility: visible;" viewBox="0 0 1142 904"><defs id="kity_defs_7"><linearGradient id="kity_linearGradient_17" x1="0" y1="0" x2="0" y2="1"><stop id="kity_stop_18" offset="0" stop-color="rgb(255, 255, 255)"></stop><stop id="kity_stop_19" offset="1" stop-color="rgb(204, 204, 204)"></stop></linearGradient><marker id="kity_marker_2" orient="auto" refX="6" refY="0" viewBox="-7 -7 14 14" markerWidth="7" markerHeight="7" markerUnits="userSpaceOnUse"><path id="kity_path_3" fill="rgb(115, 161, 191)" stroke="none" d="M6,0A6,6,0,1,1,-6,0A6,6,0,1,1,6,0"></path></marker></defs><g id="kity_g_8"><g id="minder1" text-rendering="optimize-speed"><g id="minder_connect_group1"><path id="kity_path_31" fill="none" stroke="rgb(115, 161, 191)" stroke-width="1" d="M74.5,440.5A172,407,0,0,1,246.5,33.5"></path><path id="kity_path_33" fill="none" stroke="rgb(115, 161, 191)" stroke-width="1" d="M325.5,33.5C345.5,33.5,345.5,33.5,365.5,33.5"></path><path id="kity_path_35" fill="none" stroke="rgb(115, 161, 191)" stroke-width="1" d="M434.5,33.5C562.5,33.5,562.5,33.5,690.5,33.5"></path><path id="kity_path_37" fill="none" stroke="rgb(115, 161, 191)" stroke-width="1" d="M74.5,440.5A172,135,0,0,1,246.5,305.5"></path><path id="kity_path_39" fill="none" stroke="rgb(115, 161, 191)" stroke-width="1" d="M340.5,305.5C360.5,305.5,360.5,97.5,380.5,97.5"></path><path id="kity_path_41" fill="none" stroke="rgb(115, 161, 191)" stroke-width="1" d="M443.5,97.5C463.5,97.5,463.5,97.5,483.5,97.5"></path><path id="kity_path_43" fill="none" stroke="rgb(115, 161, 191)" stroke-width="1" d="M340.5,305.5C360.5,305.5,360.5,149.5,380.5,149.5"></path><path id="kity_path_45" fill="none" stroke="rgb(115, 161, 191)" stroke-width="1" d="M440.5,149.5C460.5,149.5,460.5,149.5,480.5,149.5"></path><path id="kity_path_47" fill="none" stroke="rgb(115, 161, 191)" stroke-width="1" d="M340.5,305.5C360.5,305.5,360.5,201.5,380.5,201.5"></path><path id="kity_path_49" fill="none" stroke="rgb(115, 161, 191)" stroke-width="1" d="M441.5,201.5C461.5,201.5,461.5,201.5,481.5,201.5"></path><path id="kity_path_51" fill="none" stroke="rgb(115, 161, 191)" stroke-width="1" d="M340.5,305.5C360.5,305.5,360.5,253.5,380.5,253.5"></path><path id="kity_path_53" fill="none" stroke="rgb(115, 161, 191)" stroke-width="1" d="M450.5,253.5C470.5,253.5,470.5,253.5,490.5,253.5"></path><path id="kity_path_55" fill="none" stroke="rgb(115, 161, 191)" stroke-width="1" d="M340.5,305.5C360.5,305.5,360.5,305.5,380.5,305.5"></path><path id="kity_path_57" fill="none" stroke="rgb(115, 161, 191)" stroke-width="1" d="M476.5,305.5C496.5,305.5,496.5,305.5,516.5,305.5"></path><path id="kity_path_59" fill="none" stroke="rgb(115, 161, 191)" stroke-width="1" d="M340.5,305.5C360.5,305.5,360.5,357.5,380.5,357.5"></path><path id="kity_path_61" fill="none" stroke="rgb(115, 161, 191)" stroke-width="1" d="M457.5,357.5C477.5,357.5,477.5,357.5,497.5,357.5"></path><path id="kity_path_63" fill="none" stroke="rgb(115, 161, 191)" stroke-width="1" d="M340.5,305.5C360.5,305.5,360.5,409.5,380.5,409.5"></path><path id="kity_path_65" fill="none" stroke="rgb(115, 161, 191)" stroke-width="1" d="M448.5,409.5C468.5,409.5,468.5,409.5,488.5,409.5"></path><path id="kity_path_67" fill="none" stroke="rgb(115, 161, 191)" stroke-width="1" d="M340.5,305.5C360.5,305.5,360.5,461.5,380.5,461.5"></path><path id="kity_path_69" fill="none" stroke="rgb(115, 161, 191)" stroke-width="1" d="M448.5,461.5C468.5,461.5,468.5,461.5,488.5,461.5"></path><path id="kity_path_75" fill="none" stroke="rgb(115, 161, 191)" stroke-width="1" d="M340.5,305.5C360.5,305.5,360.5,513.5,380.5,513.5"></path><path id="kity_path_77" fill="none" stroke="rgb(115, 161, 191)" stroke-width="1" d="M441.5,513.5C461.5,513.5,461.5,513.5,481.5,513.5"></path><path id="kity_path_79" fill="none" stroke="rgb(115, 161, 191)" stroke-width="1" d="M74.5,440.5A172,137,0,0,0,246.5,577.5"></path><path id="kity_path_81" fill="none" stroke="rgb(115, 161, 191)" stroke-width="1" d="M318.5,577.5C338.5,577.5,338.5,577.5,358.5,577.5"></path><path id="kity_path_83" fill="none" stroke="rgb(115, 161, 191)" stroke-width="1" d="M451.5,577.5C471.5,577.5,471.5,577.5,491.5,577.5"></path><path id="kity_path_85" fill="none" stroke="rgb(115, 161, 191)" stroke-width="1" d="M74.5,440.5A172,203,0,0,0,246.5,643.5"></path><path id="kity_path_87" fill="none" stroke="rgb(115, 161, 191)" stroke-width="1" d="M344.5,643.5C364.5,643.5,364.5,643.5,384.5,643.5"></path><path id="kity_path_89" fill="none" stroke="rgb(115, 161, 191)" stroke-width="1" d="M469.5,643.5C489.5,643.5,489.5,643.5,509.5,643.5"></path><path id="kity_path_91" fill="none" stroke="rgb(115, 161, 191)" stroke-width="1" d="M74.5,440.5A172,293,0,0,0,246.5,733.5"></path><path id="kity_path_93" fill="none" stroke="rgb(115, 161, 191)" stroke-width="1" d="M327.5,733.5C347.5,733.5,347.5,707.5,367.5,707.5"></path><path id="kity_path_95" fill="none" stroke="rgb(115, 161, 191)" stroke-width="1" d="M437.5,707.5C457.5,707.5,457.5,707.5,477.5,707.5"></path><path id="kity_path_97" fill="none" stroke="rgb(115, 161, 191)" stroke-width="1" d="M327.5,733.5C347.5,733.5,347.5,759.5,367.5,759.5"></path><path id="kity_path_99" fill="none" stroke="rgb(115, 161, 191)" stroke-width="1" d="M515.5,759.5C535.5,759.5,535.5,759.5,555.5,759.5"></path><path id="kity_path_101" fill="none" stroke="rgb(115, 161, 191)" stroke-width="1" d="M74.5,440.5A172,407,0,0,0,246.5,847.5"></path><path id="kity_path_103" fill="none" stroke="rgb(115, 161, 191)" stroke-width="1" d="M335.5,847.5C355.5,847.5,355.5,821.5,375.5,821.5"></path><path id="kity_path_105" fill="none" stroke="rgb(115, 161, 191)" stroke-width="1" d="M453.5,821.5C473.5,821.5,473.5,821.5,493.5,821.5"></path><path id="kity_path_107" fill="none" stroke="rgb(115, 161, 191)" stroke-width="1" d="M335.5,847.5C355.5,847.5,355.5,873.5,375.5,873.5"></path><path id="kity_path_109" fill="none" stroke="rgb(115, 161, 191)" stroke-width="1" d="M478.5,873.5C498.5,873.5,498.5,873.5,518.5,873.5"></path></g><g id="minder_node1"><path id="node_outline1" fill="rgb(115, 161, 191)" stroke="rgb(115, 161, 191)" d="M25.5,420.5h98a5,5,0,0,1,5,5v30a5,5,0,0,1,-5,5h-98a5,5,0,0,1,-5,-5v-30a5,5,0,0,1,5,-5z" stroke-width="3"></path><g id="node_text1" fill="white"><text id="kity_text_22" text-rendering="inherit" font-size="16" dy=".8em" y="430.09999990463257" x="44.5">HaDMC</text></g></g><g id="kity_g_12" display="none"><path id="kity_path_13" fill="none" stroke="none" d="M44.5,440.5h0v0h0z"></path></g><g id="kity_g_14" display="none"><path id="kity_path_15" fill="none" stroke="none" d="M44.5,440.5h0v0h0z"></path><path id="kity_path_16" fill="none" stroke="none"></path></g><g id="minder_node2"><g id="node_expander3" style="cursor: pointer;"><path id="kity_path_277" fill="white" stroke="gray" d="M247.50000667572021,33.49998787045479A6,6,0,1,1,235.50000667572021,33.49998787045479A6,6,0,1,1,247.50000667572021,33.49998787045479"></path><path id="kity_path_278" fill="none" stroke="gray" d="M237.00000667572021,33.49998787045479L246.00000667572021,33.49998787045479"></path></g><path id="node_outline4" fill="rgb(238, 243, 246)" stroke="rgb(115, 161, 191)" d="M251.50000667572021,20.499987870454788h71a3,3,0,0,1,3,3v20a3,3,0,0,1,-3,3h-71a3,3,0,0,1,-3,-3v-20a3,3,0,0,1,3,-3z" stroke-width="1"></path><g id="node_text4" fill="black"><text id="kity_text_131" text-rendering="inherit" font-size="14" dy=".8em" y="24.39998796582222" x="268.5000066757202">event</text></g></g><g id="minder_node3"><g id="node_expander2" style="cursor: pointer;"><path id="kity_path_274" fill="white" stroke="gray" d="M365.5000098645687,33.49998787045479A6,6,0,1,1,353.5000098645687,33.49998787045479A6,6,0,1,1,365.5000098645687,33.49998787045479"></path><path id="kity_path_275" fill="none" stroke="gray" d="M355.0000098645687,33.49998787045479L364.0000098645687,33.49998787045479"></path></g><path id="node_outline3" fill="none" stroke="none" d="M370.5000098645687,22.499987870454788h59a5,5,0,0,1,5,5v12a5,5,0,0,1,-5,5h-59a5,5,0,0,1,-5,-5v-12a5,5,0,0,1,5,-5z"></path><g id="node_text3" fill="black"><text id="kity_text_129" text-rendering="inherit" font-size="12" dy=".8em" y="25.699987918138504" x="375.5000098645687">event.py</text></g></g><g id="minder_node4" opacity="1"><g id="node_expander1" style="cursor: pointer;" display="none"><path id="kity_path_271" fill="white" stroke="gray" d="M690.5000195503235,33.49998787045479A6,6,0,1,1,678.5000195503235,33.49998787045479A6,6,0,1,1,690.5000195503235,33.49998787045479"></path><path id="kity_path_272" fill="none" stroke="gray"></path></g><path id="node_outline2" fill="none" stroke="none" d="M695.5000195503235,22.499987870454788h422a5,5,0,0,1,5,5v12a5,5,0,0,1,-5,5h-422a5,5,0,0,1,-5,-5v-12a5,5,0,0,1,5,-5z" stroke-width="3"></path><g id="node_text2" fill="black"><text id="kity_text_127" text-rendering="inherit" font-size="12" dy=".8em" y="25.699987918138504" x="700.5000195503235">The real-time simulation for the interaction between drone and charger.</text></g></g><g id="minder_node5"><g id="node_expander24" style="cursor: pointer;"><path id="kity_path_340" fill="white" stroke="gray" d="M247.50000667572021,305.4999959766865A6,6,0,1,1,235.50000667572021,305.4999959766865A6,6,0,1,1,247.50000667572021,305.4999959766865"></path><path id="kity_path_341" fill="none" stroke="gray" d="M237.00000667572021,305.4999959766865L246.00000667572021,305.4999959766865"></path></g><path id="node_outline25" fill="rgb(238, 243, 246)" stroke="rgb(115, 161, 191)" d="M251.50000667572021,292.4999959766865h86a3,3,0,0,1,3,3v20a3,3,0,0,1,-3,3h-86a3,3,0,0,1,-3,-3v-20a3,3,0,0,1,3,-3z" stroke-width="1"></path><g id="node_text25" fill="black"><text id="kity_text_173" text-rendering="inherit" font-size="14" dy=".8em" y="296.3999960720539" x="268.5000066757202">HaDMC</text></g></g><g id="minder_node6"><g id="node_expander5" style="cursor: pointer;"><path id="kity_path_283" fill="white" stroke="gray" d="M380.50001031160355,97.49998977780342A6,6,0,1,1,368.50001031160355,97.49998977780342A6,6,0,1,1,380.50001031160355,97.49998977780342"></path><path id="kity_path_284" fill="none" stroke="gray" d="M370.00001031160355,97.49998977780342L379.00001031160355,97.49998977780342"></path></g><path id="node_outline6" fill="none" stroke="none" d="M385.50001031160355,86.49998977780342h53a5,5,0,0,1,5,5v12a5,5,0,0,1,-5,5h-53a5,5,0,0,1,-5,-5v-12a5,5,0,0,1,5,-5z"></path><g id="node_text6" fill="black"><text id="kity_text_135" text-rendering="inherit" font-size="12" dy=".8em" y="89.69998982548714" x="390.50001031160355">train,py</text></g></g><g id="minder_node7"><g id="node_expander4" style="cursor: pointer;" display="none"><path id="kity_path_280" fill="white" stroke="gray" d="M483.50001338124275,97.49998977780342A6,6,0,1,1,471.50001338124275,97.49998977780342A6,6,0,1,1,483.50001338124275,97.49998977780342"></path><path id="kity_path_281" fill="none" stroke="gray"></path></g><path id="node_outline5" fill="none" stroke="none" d="M488.50001338124275,86.49998977780342h307a5,5,0,0,1,5,5v12a5,5,0,0,1,-5,5h-307a5,5,0,0,1,-5,-5v-12a5,5,0,0,1,5,-5z" stroke-width="3"></path><g id="node_text5" fill="black"><text id="kity_text_133" text-rendering="inherit" font-size="12" dy=".8em" y="89.69998982548714" x="493.50001338124275">Training the reinforcement learning model: HaDMC.</text></g></g><g id="minder_node8"><g id="node_expander7" style="cursor: pointer;"><path id="kity_path_289" fill="white" stroke="gray" d="M380.50001031160355,149.49999132752413A6,6,0,1,1,368.50001031160355,149.49999132752413A6,6,0,1,1,380.50001031160355,149.49999132752413"></path><path id="kity_path_290" fill="none" stroke="gray" d="M370.00001031160355,149.49999132752413L379.00001031160355,149.49999132752413"></path></g><path id="node_outline8" fill="none" stroke="none" d="M385.50001031160355,138.49999132752413h50a5,5,0,0,1,5,5v12a5,5,0,0,1,-5,5h-50a5,5,0,0,1,-5,-5v-12a5,5,0,0,1,5,-5z"></path><g id="node_text8" fill="black"><text id="kity_text_139" text-rendering="inherit" font-size="12" dy=".8em" y="141.69999137520784" x="390.50001031160355">TD3.py</text></g></g><g id="minder_node9"><g id="node_expander6" style="cursor: pointer;" display="none"><path id="kity_path_286" fill="white" stroke="gray" d="M480.5000132918358,149.49999132752413A6,6,0,1,1,468.5000132918358,149.49999132752413A6,6,0,1,1,480.5000132918358,149.49999132752413"></path><path id="kity_path_287" fill="none" stroke="gray"></path></g><path id="node_outline7" fill="none" stroke="none" d="M485.5000132918358,138.49999132752413h131a5,5,0,0,1,5,5v12a5,5,0,0,1,-5,5h-131a5,5,0,0,1,-5,-5v-12a5,5,0,0,1,5,-5z" stroke-width="3"></path><g id="node_text7" fill="black"><text id="kity_text_137" text-rendering="inherit" font-size="12" dy=".8em" y="141.69999137520784" x="490.5000132918358">TD3 implementation.</text></g></g><g id="minder_node10"><g id="node_expander9" style="cursor: pointer;"><path id="kity_path_295" fill="white" stroke="gray" d="M380.50001031160355,201.49999287724498A6,6,0,1,1,368.50001031160355,201.49999287724498A6,6,0,1,1,380.50001031160355,201.49999287724498"></path><path id="kity_path_296" fill="none" stroke="gray" d="M370.00001031160355,201.49999287724498L379.00001031160355,201.49999287724498"></path></g><path id="node_outline10" fill="none" stroke="none" d="M385.50001031160355,190.49999287724498h51a5,5,0,0,1,5,5v12a5,5,0,0,1,-5,5h-51a5,5,0,0,1,-5,-5v-12a5,5,0,0,1,5,-5z"></path><g id="node_text10" fill="black"><text id="kity_text_143" text-rendering="inherit" font-size="12" dy=".8em" y="193.6999929249287" x="390.50001031160355">AAE.py</text></g></g><g id="minder_node11"><g id="node_expander8" style="cursor: pointer;" display="none"><path id="kity_path_292" fill="white" stroke="gray" d="M481.5000133216381,201.49999287724498A6,6,0,1,1,469.5000133216381,201.49999287724498A6,6,0,1,1,481.5000133216381,201.49999287724498"></path><path id="kity_path_293" fill="none" stroke="gray"></path></g><path id="node_outline9" fill="none" stroke="none" d="M486.5000133216381,190.49999287724498h159a5,5,0,0,1,5,5v12a5,5,0,0,1,-5,5h-159a5,5,0,0,1,-5,-5v-12a5,5,0,0,1,5,-5z" stroke-width="3"></path><g id="node_text9" fill="black"><text id="kity_text_141" text-rendering="inherit" font-size="12" dy=".8em" y="193.6999929249287" x="491.5000133216381">Adversarial autoencoders.</text></g></g><g id="minder_node12"><g id="node_expander11" style="cursor: pointer;"><path id="kity_path_301" fill="white" stroke="gray" d="M380.50001031160355,253.4999944269657A6,6,0,1,1,368.50001031160355,253.4999944269657A6,6,0,1,1,380.50001031160355,253.4999944269657"></path><path id="kity_path_302" fill="none" stroke="gray" d="M370.00001031160355,253.4999944269657L379.00001031160355,253.4999944269657"></path></g><path id="node_outline12" fill="none" stroke="none" d="M385.50001031160355,242.4999944269657h60a5,5,0,0,1,5,5v12a5,5,0,0,1,-5,5h-60a5,5,0,0,1,-5,-5v-12a5,5,0,0,1,5,-5z"></path><g id="node_text12" fill="black"><text id="kity_text_147" text-rendering="inherit" font-size="12" dy=".8em" y="245.69999447464943" x="390.50001031160355">agent.py</text></g></g><g id="minder_node13"><g id="node_expander10" style="cursor: pointer;" display="none"><path id="kity_path_298" fill="white" stroke="gray" d="M490.500013589859,253.4999944269657A6,6,0,1,1,478.500013589859,253.4999944269657A6,6,0,1,1,490.500013589859,253.4999944269657"></path><path id="kity_path_299" fill="none" stroke="gray"></path></g><path id="node_outline11" fill="none" stroke="none" d="M495.500013589859,242.4999944269657h143a5,5,0,0,1,5,5v12a5,5,0,0,1,-5,5h-143a5,5,0,0,1,-5,-5v-12a5,5,0,0,1,5,-5z" stroke-width="3"></path><g id="node_text11" fill="black"><text id="kity_text_145" text-rendering="inherit" font-size="12" dy=".8em" y="245.69999447464943" x="500.500013589859">The basic agent model.</text></g></g><g id="minder_node14"><g id="node_expander13" style="cursor: pointer;"><path id="kity_path_307" fill="white" stroke="gray" d="M380.50001031160355,305.4999959766865A6,6,0,1,1,368.50001031160355,305.4999959766865A6,6,0,1,1,380.50001031160355,305.4999959766865"></path><path id="kity_path_308" fill="none" stroke="gray" d="M370.00001031160355,305.4999959766865L379.00001031160355,305.4999959766865"></path></g><path id="node_outline14" fill="none" stroke="none" d="M385.50001031160355,294.4999959766865h86a5,5,0,0,1,5,5v12a5,5,0,0,1,-5,5h-86a5,5,0,0,1,-5,-5v-12a5,5,0,0,1,5,-5z"></path><g id="node_text14" fill="black"><text id="kity_text_151" text-rendering="inherit" font-size="12" dy=".8em" y="297.6999960243702" x="390.50001031160355">Evaluation,py</text></g></g><g id="minder_node15"><g id="node_expander12" style="cursor: pointer;" display="none"><path id="kity_path_304" fill="white" stroke="gray" d="M516.5000143647194,305.4999959766865A6,6,0,1,1,504.5000143647194,305.4999959766865A6,6,0,1,1,516.5000143647194,305.4999959766865"></path><path id="kity_path_305" fill="none" stroke="gray"></path></g><path id="node_outline13" fill="none" stroke="none" d="M521.5000143647194,294.4999959766865h212a5,5,0,0,1,5,5v12a5,5,0,0,1,-5,5h-212a5,5,0,0,1,-5,-5v-12a5,5,0,0,1,5,-5z" stroke-width="3"></path><g id="node_text13" fill="black"><text id="kity_text_149" text-rendering="inherit" font-size="12" dy=".8em" y="297.6999960243702" x="526.5000143647194">Evaluating the model performance.</text></g></g><g id="minder_node16"><g id="node_expander15" style="cursor: pointer;"><path id="kity_path_313" fill="white" stroke="gray" d="M380.50001031160355,357.49999752640724A6,6,0,1,1,368.50001031160355,357.49999752640724A6,6,0,1,1,380.50001031160355,357.49999752640724"></path><path id="kity_path_314" fill="none" stroke="gray" d="M370.00001031160355,357.49999752640724L379.00001031160355,357.49999752640724"></path></g><path id="node_outline16" fill="none" stroke="none" d="M385.50001031160355,346.49999752640724h67a5,5,0,0,1,5,5v12a5,5,0,0,1,-5,5h-67a5,5,0,0,1,-5,-5v-12a5,5,0,0,1,5,-5z"></path><g id="node_text16" fill="black"><text id="kity_text_155" text-rendering="inherit" font-size="12" dy=".8em" y="349.69999757409096" x="390.50001031160355">Logger.py</text></g></g><g id="minder_node17"><g id="node_expander14" style="cursor: pointer;" display="none"><path id="kity_path_310" fill="white" stroke="gray" d="M497.50001379847527,357.49999752640724A6,6,0,1,1,485.50001379847527,357.49999752640724A6,6,0,1,1,497.50001379847527,357.49999752640724"></path><path id="kity_path_311" fill="none" stroke="gray"></path></g><path id="node_outline15" fill="none" stroke="none" d="M502.50001379847527,346.49999752640724h229a5,5,0,0,1,5,5v12a5,5,0,0,1,-5,5h-229a5,5,0,0,1,-5,-5v-12a5,5,0,0,1,5,-5z" stroke-width="3"></path><g id="node_text15" fill="black"><text id="kity_text_153" text-rendering="inherit" font-size="12" dy=".8em" y="349.69999757409096" x="507.50001379847527">Recording the model training process.</text></g></g><g id="minder_node18"><g id="node_expander17" style="cursor: pointer;"><path id="kity_path_319" fill="white" stroke="gray" d="M380.50001031160355,409.499999076128A6,6,0,1,1,368.50001031160355,409.499999076128A6,6,0,1,1,380.50001031160355,409.499999076128"></path><path id="kity_path_320" fill="none" stroke="gray" d="M370.00001031160355,409.499999076128L379.00001031160355,409.499999076128"></path></g><path id="node_outline18" fill="none" stroke="none" d="M385.50001031160355,398.499999076128h58a5,5,0,0,1,5,5v12a5,5,0,0,1,-5,5h-58a5,5,0,0,1,-5,-5v-12a5,5,0,0,1,5,-5z"></path><g id="node_text18" fill="black"><text id="kity_text_159" text-rendering="inherit" font-size="12" dy=".8em" y="401.6999991238117" x="390.50001031160355">noise.py</text></g></g><g id="minder_node19"><g id="node_expander16" style="cursor: pointer;" display="none"><path id="kity_path_316" fill="white" stroke="gray" d="M488.50001353025436,409.499999076128A6,6,0,1,1,476.50001353025436,409.499999076128A6,6,0,1,1,488.50001353025436,409.499999076128"></path><path id="kity_path_317" fill="none" stroke="gray"></path></g><path id="node_outline17" fill="none" stroke="none" d="M493.50001353025436,398.499999076128h194a5,5,0,0,1,5,5v12a5,5,0,0,1,-5,5h-194a5,5,0,0,1,-5,-5v-12a5,5,0,0,1,5,-5z" stroke-width="3"></path><g id="node_text17" fill="black"><text id="kity_text_157" text-rendering="inherit" font-size="12" dy=".8em" y="401.6999991238117" x="498.50001353025436">Adding the noise to the actions.</text></g></g><g id="minder_node20"><g id="node_expander19" style="cursor: pointer;"><path id="kity_path_325" fill="white" stroke="gray" d="M380.50001031160355,461.50000062584877A6,6,0,1,1,368.50001031160355,461.50000062584877A6,6,0,1,1,380.50001031160355,461.50000062584877"></path><path id="kity_path_326" fill="none" stroke="gray" d="M370.00001031160355,461.50000062584877L379.00001031160355,461.50000062584877"></path></g><path id="node_outline20" fill="none" stroke="none" d="M385.50001031160355,450.50000062584877h58a5,5,0,0,1,5,5v12a5,5,0,0,1,-5,5h-58a5,5,0,0,1,-5,-5v-12a5,5,0,0,1,5,-5z" stroke-width="3"></path><g id="node_text20" fill="black"><text id="kity_text_163" text-rendering="inherit" font-size="12" dy=".8em" y="453.7000006735325" x="390.50001031160355">pdqn.py</text></g></g><g id="minder_node21"><g id="node_expander18" style="cursor: pointer;" display="none"><path id="kity_path_322" fill="white" stroke="gray" d="M488.50001353025436,461.50000062584877A6,6,0,1,1,476.50001353025436,461.50000062584877A6,6,0,1,1,488.50001353025436,461.50000062584877"></path><path id="kity_path_323" fill="none" stroke="gray"></path></g><path id="node_outline19" fill="none" stroke="none" d="M493.50001353025436,450.50000062584877h221a5,5,0,0,1,5,5v12a5,5,0,0,1,-5,5h-221a5,5,0,0,1,-5,-5v-12a5,5,0,0,1,5,-5z" stroke-width="3"></path><g id="node_text19" fill="black"><text id="kity_text_161" text-rendering="inherit" font-size="12" dy=".8em" y="453.7000006735325" x="498.50001353025436">The initial agent for pretraining data.</text></g></g><g id="minder_node24"><g id="node_expander23" style="cursor: pointer;"><path id="kity_path_337" fill="white" stroke="gray" d="M380.50001031160355,513.5000021755695A6,6,0,1,1,368.50001031160355,513.5000021755695A6,6,0,1,1,380.50001031160355,513.5000021755695"></path><path id="kity_path_338" fill="none" stroke="gray" d="M370.00001031160355,513.5000021755695L379.00001031160355,513.5000021755695"></path></g><path id="node_outline24" fill="none" stroke="none" d="M385.50001031160355,502.50000217556953h51a5,5,0,0,1,5,5v12a5,5,0,0,1,-5,5h-51a5,5,0,0,1,-5,-5v-12a5,5,0,0,1,5,-5z"></path><g id="node_text24" fill="black"><text id="kity_text_171" text-rendering="inherit" font-size="12" dy=".8em" y="505.70000222325325" x="390.50001031160355">utils.py</text></g></g><g id="minder_node25"><g id="node_expander22" style="cursor: pointer;" display="none"><path id="kity_path_334" fill="white" stroke="gray" d="M481.5000133216381,513.5000021755695A6,6,0,1,1,469.5000133216381,513.5000021755695A6,6,0,1,1,481.5000133216381,513.5000021755695"></path><path id="kity_path_335" fill="none" stroke="gray"></path></g><path id="node_outline23" fill="none" stroke="none" d="M486.5000133216381,502.50000217556953h233a5,5,0,0,1,5,5v12a5,5,0,0,1,-5,5h-233a5,5,0,0,1,-5,-5v-12a5,5,0,0,1,5,-5z" stroke-width="3"></path><g id="node_text23" fill="black"><text id="kity_text_169" text-rendering="inherit" font-size="12" dy=".8em" y="505.70000222325325" x="491.5000133216381">Some tools used in the model training.</text></g></g><g id="minder_node26"><g id="node_expander27" style="cursor: pointer;"><path id="kity_path_349" fill="white" stroke="gray" d="M247.50000667572021,577.5000040829182A6,6,0,1,1,235.50000667572021,577.5000040829182A6,6,0,1,1,247.50000667572021,577.5000040829182"></path><path id="kity_path_350" fill="none" stroke="gray" d="M237.00000667572021,577.5000040829182L246.00000667572021,577.5000040829182"></path></g><path id="node_outline28" fill="rgb(238, 243, 246)" stroke="rgb(115, 161, 191)" d="M251.50000667572021,564.5000040829182h64a3,3,0,0,1,3,3v20a3,3,0,0,1,-3,3h-64a3,3,0,0,1,-3,-3v-20a3,3,0,0,1,3,-3z" stroke-width="1"></path><g id="node_text28" fill="black"><text id="kity_text_179" text-rendering="inherit" font-size="14" dy=".8em" y="568.4000041782856" x="268.5000066757202">map</text></g></g><g id="minder_node27"><g id="node_expander26" style="cursor: pointer;"><path id="kity_path_346" fill="white" stroke="gray" d="M358.50000965595245,577.5000040829182A6,6,0,1,1,346.50000965595245,577.5000040829182A6,6,0,1,1,358.50000965595245,577.5000040829182"></path><path id="kity_path_347" fill="none" stroke="gray" d="M348.00000965595245,577.5000040829182L357.00000965595245,577.5000040829182"></path></g><path id="node_outline27" fill="none" stroke="none" d="M363.50000965595245,566.5000040829182h83a5,5,0,0,1,5,5v12a5,5,0,0,1,-5,5h-83a5,5,0,0,1,-5,-5v-12a5,5,0,0,1,5,-5z" stroke-width="3"></path><g id="node_text27" fill="black"><text id="kity_text_177" text-rendering="inherit" font-size="12" dy=".8em" y="569.7000041306019" x="368.50000965595245">geometry.py</text></g></g><g id="minder_node28"><g id="node_expander25" style="cursor: pointer;" display="none"><path id="kity_path_343" fill="white" stroke="gray" d="M491.50001361966133,577.5000040829182A6,6,0,1,1,479.50001361966133,577.5000040829182A6,6,0,1,1,491.50001361966133,577.5000040829182"></path><path id="kity_path_344" fill="none" stroke="gray"></path></g><path id="node_outline26" fill="none" stroke="none" d="M496.50001361966133,566.5000040829182h197a5,5,0,0,1,5,5v12a5,5,0,0,1,-5,5h-197a5,5,0,0,1,-5,-5v-12a5,5,0,0,1,5,-5z" stroke-width="3"></path><g id="node_text26" fill="black"><text id="kity_text_175" text-rendering="inherit" font-size="12" dy=".8em" y="569.7000041306019" x="501.50001361966133">Setting the map of&#xa0; the scenario.</text></g></g><g id="minder_node29"><g id="node_expander30" style="cursor: pointer;"><path id="kity_path_358" fill="white" stroke="gray" d="M247.50000667572021,643.5000060498714A6,6,0,1,1,235.50000667572021,643.5000060498714A6,6,0,1,1,247.50000667572021,643.5000060498714"></path><path id="kity_path_359" fill="none" stroke="gray" d="M237.00000667572021,643.5000060498714L246.00000667572021,643.5000060498714"></path></g><path id="node_outline31" fill="rgb(238, 243, 246)" stroke="rgb(115, 161, 191)" d="M251.50000667572021,630.5000060498714h90a3,3,0,0,1,3,3v20a3,3,0,0,1,-3,3h-90a3,3,0,0,1,-3,-3v-20a3,3,0,0,1,3,-3z" stroke-width="1"></path><g id="node_text31" fill="black"><text id="kity_text_185" text-rendering="inherit" font-size="14" dy=".8em" y="634.4000061452389" x="268.5000066757202">scenario</text></g></g><g id="minder_node30"><g id="node_expander29" style="cursor: pointer;"><path id="kity_path_355" fill="white" stroke="gray" d="M384.50001043081284,643.5000060498714A6,6,0,1,1,372.50001043081284,643.5000060498714A6,6,0,1,1,384.50001043081284,643.5000060498714"></path><path id="kity_path_356" fill="none" stroke="gray" d="M374.00001043081284,643.5000060498714L383.00001043081284,643.5000060498714"></path></g><path id="node_outline30" fill="none" stroke="none" d="M389.50001043081284,632.5000060498714h75a5,5,0,0,1,5,5v12a5,5,0,0,1,-5,5h-75a5,5,0,0,1,-5,-5v-12a5,5,0,0,1,5,-5z"></path><g id="node_text30" fill="black"><text id="kity_text_183" text-rendering="inherit" font-size="12" dy=".8em" y="635.7000060975552" x="394.50001043081284">scenario.py</text></g></g><g id="minder_node31"><g id="node_expander28" style="cursor: pointer;" display="none"><path id="kity_path_352" fill="white" stroke="gray" d="M509.50001415610313,643.5000060498714A6,6,0,1,1,497.50001415610313,643.5000060498714A6,6,0,1,1,509.50001415610313,643.5000060498714"></path><path id="kity_path_353" fill="none" stroke="gray"></path></g><path id="node_outline29" fill="none" stroke="none" d="M514.5000141561031,632.5000060498714h186a5,5,0,0,1,5,5v12a5,5,0,0,1,-5,5h-186a5,5,0,0,1,-5,-5v-12a5,5,0,0,1,5,-5z" stroke-width="3"></path><g id="node_text29" fill="black"><text id="kity_text_181" text-rendering="inherit" font-size="12" dy=".8em" y="635.7000060975552" x="519.5000141561031">Setting the outline of scenario.</text></g></g><g id="minder_node32"><g id="node_expander35" style="cursor: pointer;"><path id="kity_path_373" fill="white" stroke="gray" d="M247.50000667572021,733.5000087320805A6,6,0,1,1,235.50000667572021,733.5000087320805A6,6,0,1,1,247.50000667572021,733.5000087320805"></path><path id="kity_path_374" fill="none" stroke="gray" d="M237.00000667572021,733.5000087320805L246.00000667572021,733.5000087320805"></path></g><path id="node_outline36" fill="rgb(238, 243, 246)" stroke="rgb(115, 161, 191)" d="M251.50000667572021,720.5000087320805h73a3,3,0,0,1,3,3v20a3,3,0,0,1,-3,3h-73a3,3,0,0,1,-3,-3v-20a3,3,0,0,1,3,-3z" stroke-width="1"></path><g id="node_text36" fill="black"><text id="kity_text_195" text-rendering="inherit" font-size="14" dy=".8em" y="724.4000088274479" x="268.5000066757202">world</text></g></g><g id="minder_node33"><g id="node_expander32" style="cursor: pointer;"><path id="kity_path_364" fill="white" stroke="gray" d="M367.50000992417336,707.5000079572201A6,6,0,1,1,355.50000992417336,707.5000079572201A6,6,0,1,1,367.50000992417336,707.5000079572201"></path><path id="kity_path_365" fill="none" stroke="gray" d="M357.00000992417336,707.5000079572201L366.00000992417336,707.5000079572201"></path></g><path id="node_outline33" fill="none" stroke="none" d="M372.50000992417336,696.5000079572201h60a5,5,0,0,1,5,5v12a5,5,0,0,1,-5,5h-60a5,5,0,0,1,-5,-5v-12a5,5,0,0,1,5,-5z"></path><g id="node_text33" fill="black"><text id="kity_text_189" text-rendering="inherit" font-size="12" dy=".8em" y="699.7000080049038" x="377.50000992417336">world.py</text></g></g><g id="minder_node34"><g id="node_expander31" style="cursor: pointer;" display="none"><path id="kity_path_361" fill="white" stroke="gray" d="M477.5000132024288,707.5000079572201A6,6,0,1,1,465.5000132024288,707.5000079572201A6,6,0,1,1,477.5000132024288,707.5000079572201"></path><path id="kity_path_362" fill="none" stroke="gray"></path></g><path id="node_outline32" fill="none" stroke="none" d="M482.5000132024288,696.5000079572201h142a5,5,0,0,1,5,5v12a5,5,0,0,1,-5,5h-142a5,5,0,0,1,-5,-5v-12a5,5,0,0,1,5,-5z" stroke-width="3"></path><g id="node_text32" fill="black"><text id="kity_text_187" text-rendering="inherit" font-size="12" dy=".8em" y="699.7000080049038" x="487.5000132024288">The details of scenario.</text></g></g><g id="minder_node35"><g id="node_expander34" style="cursor: pointer;"><path id="kity_path_370" fill="white" stroke="gray" d="M367.50000992417336,759.5000095069408A6,6,0,1,1,355.50000992417336,759.5000095069408A6,6,0,1,1,367.50000992417336,759.5000095069408"></path><path id="kity_path_371" fill="none" stroke="gray" d="M357.00000992417336,759.5000095069408L366.00000992417336,759.5000095069408"></path></g><path id="node_outline35" fill="none" stroke="none" d="M372.50000992417336,748.5000095069408h138a5,5,0,0,1,5,5v12a5,5,0,0,1,-5,5h-138a5,5,0,0,1,-5,-5v-12a5,5,0,0,1,5,-5z"></path><g id="node_text35" fill="black"><text id="kity_text_193" text-rendering="inherit" font-size="12" dy=".8em" y="751.7000095546246" x="377.50000992417336">GreedyObservation.py</text></g></g><g id="minder_node36"><g id="node_expander33" style="cursor: pointer;" display="none"><path id="kity_path_367" fill="white" stroke="gray" d="M555.50001552701,759.5000095069408A6,6,0,1,1,543.50001552701,759.5000095069408A6,6,0,1,1,555.50001552701,759.5000095069408"></path><path id="kity_path_368" fill="none" stroke="gray"></path></g><path id="node_outline34" fill="none" stroke="none" d="M560.50001552701,748.5000095069408h231a5,5,0,0,1,5,5v12a5,5,0,0,1,-5,5h-231a5,5,0,0,1,-5,-5v-12a5,5,0,0,1,5,-5z" stroke-width="3"></path><g id="node_text34" fill="black"><text id="kity_text_191" text-rendering="inherit" font-size="12" dy=".8em" y="751.7000095546246" x="565.50001552701">A baseline algorithm based on greedy.</text></g></g><g id="minder_node37"><g id="node_expander40" style="cursor: pointer;"><path id="kity_path_388" fill="white" stroke="gray" d="M247.50000667572021,847.5000121295452A6,6,0,1,1,235.50000667572021,847.5000121295452A6,6,0,1,1,247.50000667572021,847.5000121295452"></path><path id="kity_path_389" fill="none" stroke="gray" d="M237.00000667572021,847.5000121295452L246.00000667572021,847.5000121295452"></path></g><path id="node_outline41" fill="rgb(238, 243, 246)" stroke="rgb(115, 161, 191)" d="M251.50000667572021,834.5000121295452h81a3,3,0,0,1,3,3v20a3,3,0,0,1,-3,3h-81a3,3,0,0,1,-3,-3v-20a3,3,0,0,1,3,-3z" stroke-width="1"></path><g id="node_text41" fill="black"><text id="kity_text_205" text-rendering="inherit" font-size="14" dy=".8em" y="838.4000122249126" x="268.5000066757202">vehicle</text></g></g><g id="minder_node38"><g id="node_expander37" style="cursor: pointer;"><path id="kity_path_379" fill="white" stroke="gray" d="M375.50001016259193,821.5000113546848A6,6,0,1,1,363.50001016259193,821.5000113546848A6,6,0,1,1,375.50001016259193,821.5000113546848"></path><path id="kity_path_380" fill="none" stroke="gray" d="M365.00001016259193,821.5000113546848L374.00001016259193,821.5000113546848"></path></g><path id="node_outline38" fill="none" stroke="none" d="M380.50001016259193,810.5000113546848h68a5,5,0,0,1,5,5v12a5,5,0,0,1,-5,5h-68a5,5,0,0,1,-5,-5v-12a5,5,0,0,1,5,-5z"></path><g id="node_text38" fill="black"><text id="kity_text_199" text-rendering="inherit" font-size="12" dy=".8em" y="813.7000114023685" x="385.50001016259193">vehicle.py</text></g></g><g id="minder_node39"><g id="node_expander36" style="cursor: pointer;" display="none"><path id="kity_path_376" fill="white" stroke="gray" d="M493.500013679266,821.5000113546848A6,6,0,1,1,481.500013679266,821.5000113546848A6,6,0,1,1,493.500013679266,821.5000113546848"></path><path id="kity_path_377" fill="none" stroke="gray"></path></g><path id="node_outline37" fill="none" stroke="none" d="M498.500013679266,810.5000113546848h219a5,5,0,0,1,5,5v12a5,5,0,0,1,-5,5h-219a5,5,0,0,1,-5,-5v-12a5,5,0,0,1,5,-5z" stroke-width="3"></path><g id="node_text37" fill="black"><text id="kity_text_197" text-rendering="inherit" font-size="12" dy=".8em" y="813.7000114023685" x="503.500013679266">Implementing the drone or charger.&#xa0;</text></g></g><g id="minder_node40"><g id="node_expander39" style="cursor: pointer;"><path id="kity_path_385" fill="white" stroke="gray" d="M375.50001016259193,873.5000129044056A6,6,0,1,1,363.50001016259193,873.5000129044056A6,6,0,1,1,375.50001016259193,873.5000129044056"></path><path id="kity_path_386" fill="none" stroke="gray" d="M365.00001016259193,873.5000129044056L374.00001016259193,873.5000129044056"></path></g><path id="node_outline40" fill="none" stroke="none" d="M380.50001016259193,862.5000129044056h93a5,5,0,0,1,5,5v12a5,5,0,0,1,-5,5h-93a5,5,0,0,1,-5,-5v-12a5,5,0,0,1,5,-5z"></path><g id="node_text40" fill="black"><text id="kity_text_203" text-rendering="inherit" font-size="12" dy=".8em" y="865.7000129520893" x="385.50001016259193">component.py</text></g></g><g id="minder_node41"><g id="node_expander38" style="cursor: pointer;" display="none"><path id="kity_path_382" fill="white" stroke="gray" d="M518.500014424324,873.5000129044056A6,6,0,1,1,506.50001442432404,873.5000129044056A6,6,0,1,1,518.500014424324,873.5000129044056"></path><path id="kity_path_383" fill="none" stroke="gray"></path></g><path id="node_outline39" fill="none" stroke="none" d="M523.500014424324,862.5000129044056h182a5,5,0,0,1,5,5v12a5,5,0,0,1,-5,5h-182a5,5,0,0,1,-5,-5v-12a5,5,0,0,1,5,-5z" stroke-width="3"></path><g id="node_text39" fill="black"><text id="kity_text_201" text-rendering="inherit" font-size="12" dy=".8em" y="865.7000129520893" x="528.500014424324">Some important components.</text></g></g></g></g></svg>